diff --git a/src/assets/clayr-logo.svg b/src/assets/clayr-logo.svg
new file mode 100644
index 0000000000000000000000000000000000000000..81f4e96115b0741ba6543f84aaf88eb737cb1596
--- /dev/null
+++ b/src/assets/clayr-logo.svg
@@ -0,0 +1,8 @@
+<svg width="200" height="200" viewBox="0 0 200 200" fill="none" xmlns="http://www.w3.org/2000/svg">
+  <rect width="200" height="200" rx="100" fill="#E4B570"/>
+  <path d="M84 68c0-8.8 7.2-16 16-16s16 7.2 16 16c0 7.6-5.3 14-12.5 15.6" stroke="#1E1C1A" stroke-width="6" stroke-linecap="round"/>
+  <path d="M76 92h48c-1.2 18.5-6.2 31-16.5 38.4-5.7 4.1-9.5 5.6-10.7 9.7-1-3.8-4.7-5.7-10.4-9.6C82.3 123.2 77.3 110.7 76 92Z" stroke="#1E1C1A" stroke-width="6" stroke-linecap="round" stroke-linejoin="round"/>
+  <path d="M100 80c2.8 8.5 9.4 12.2 13.8 13.8" stroke="#3D2A21" stroke-width="5" stroke-linecap="round"/>
+  <path d="M104 124c0 6.5 5.4 12 12 12 6.6 0 12-5.5 12-12 0-5.7-4.1-10.5-9.5-11.7" stroke="#1E1C1A" stroke-width="6" stroke-linecap="round"/>
+  <circle cx="76" cy="78" r="6" fill="#1E1C1A"/>
+</svg>
